<svg width="48" height="48" viewBox="0 0 48 48" fill="none" xmlns="http://www.w3.org/2000/svg">
<path fill-rule="evenodd" clip-rule="evenodd" d="M24 6C28.7739 6 33.3523 7.89642 36.7279 11.2721C40.1036 14.6477 42 19.2261 42 24V36C42 37.5913 41.3679 39.1174 40.2426 40.2426C39.1174 41.3679 37.5913 42 36 42H33.236C32.5317 41.9998 31.8399 41.8137 31.2306 41.4604C30.6213 41.1071 30.116 40.5992 29.766 39.988C27.894 41.27 25.832 42 24 42C22.168 42 20.106 41.268 18.234 39.988C17.884 40.5992 17.3787 41.1071 16.7694 41.4604C16.1601 41.8137 15.4683 41.9998 14.764 42H12C10.4087 42 8.88258 41.3679 7.75736 40.2426C6.63214 39.1174 6 37.5913 6 36V24C6 19.2261 7.89642 14.6477 11.2721 11.2721C14.6477 7.89642 19.2261 6 24 6ZM24 10C20.287 10 16.726 11.475 14.1005 14.1005C11.475 16.726 10 20.287 10 24V36C10 36.5304 10.2107 37.0391 10.5858 37.4142C10.9609 37.7893 11.4696 38 12 38H14.764L15.182 37.164C13.322 34.858 12 31.76 12 28C12 26.42 12.266 24.852 12.746 23.376C12.8801 22.9641 13.1442 22.6069 13.4988 22.358C13.8533 22.1091 14.2791 21.9821 14.712 21.996C16.2031 22.0368 17.6813 21.7096 19.0159 21.0433C20.3505 20.3771 21.5004 19.3923 22.364 18.176C22.5486 17.9136 22.7935 17.6994 23.0783 17.5515C23.363 17.4036 23.6792 17.3264 24 17.3264C24.3208 17.3264 24.637 17.4036 24.9217 17.5515C25.2065 17.6994 25.4514 17.9136 25.636 18.176C26.4996 19.3923 27.6495 20.3771 28.9841 21.0433C30.3187 21.7096 31.7969 22.0368 33.288 21.996C33.7209 21.9821 34.1467 22.1091 34.5012 22.358C34.8558 22.6069 35.1199 22.9641 35.254 23.376C35.734 24.852 36 26.418 36 28C36 31.76 34.678 34.858 32.818 37.164L33.236 38H36C36.5304 38 37.0391 37.7893 37.4142 37.4142C37.7893 37.0391 38 36.5304 38 36V24C38 20.287 36.525 16.726 33.8995 14.1005C31.274 11.475 27.713 10 24 10ZM24 22.38C21.8808 24.4179 19.1317 25.6747 16.204 25.944C16.0692 26.6211 16.0009 27.3097 16 28C16 31.236 17.314 33.744 19.012 35.454C20.772 37.228 22.792 38 24 38C25.208 38 27.226 37.228 28.988 35.454C30.686 33.744 32 31.236 32 28C31.999 27.3103 31.9307 26.6224 31.796 25.946C28.868 25.6761 26.1189 24.4186 24 22.38Z" fill="black"/>
</svg>
