<svg width="48" height="48" viewBox="0 0 48 48" fill="none" xmlns="http://www.w3.org/2000/svg">
<path d="M19.5 34.5V44.25C19.4966 44.5464 19.5525 44.8405 19.6644 45.115C19.7762 45.3896 19.9418 45.6389 20.1515 45.8486C20.3611 46.0582 20.6105 46.2238 20.885 46.3356C21.1595 46.4475 21.4536 46.5034 21.75 46.5C22.0464 46.5034 22.3405 46.4475 22.615 46.3356C22.8895 46.2238 23.1389 46.0582 23.3485 45.8486C23.5582 45.6389 23.7238 45.3896 23.8356 45.115C23.9475 44.8405 24.0034 44.5464 24 44.25" stroke="black" stroke-width="3" stroke-miterlimit="10" stroke-linecap="round"/>
<path d="M24 34.5V44.25C23.9966 44.5464 24.0525 44.8405 24.1644 45.115C24.2762 45.3896 24.4418 45.6389 24.6515 45.8486C24.8611 46.0582 25.1105 46.2238 25.385 46.3356C25.6595 46.4475 25.9536 46.5034 26.25 46.5C26.5464 46.5034 26.8405 46.4475 27.115 46.3356C27.3896 46.2238 27.6389 46.0582 27.8486 45.8486C28.0582 45.6389 28.2238 45.3896 28.3356 45.115C28.4475 44.8405 28.5034 44.5464 28.5 44.25V34.5M17.1563 25.6875C17.0752 25.9727 16.9379 26.2388 16.7525 26.4701C16.5672 26.7015 16.3374 26.8935 16.0768 27.0348C15.8162 27.1761 15.5299 27.2639 15.2349 27.293C14.9399 27.3222 14.642 27.292 14.3588 27.2044C14.0736 27.1233 13.8075 26.986 13.5762 26.8007C13.3449 26.6153 13.1529 26.3855 13.0117 26.1249C12.8704 25.8642 12.7827 25.5779 12.7537 25.2829C12.7247 24.9879 12.755 24.69 12.8428 24.4069L15.1866 16.5056C15.445 15.637 15.9772 14.8751 16.7038 14.3335C17.4304 13.7919 18.3125 13.4995 19.2188 13.5H28.7813C29.6876 13.4999 30.5697 13.7926 31.2961 14.3346C32.0226 14.8765 32.5544 15.6387 32.8125 16.5075L35.1563 24.4087C35.244 24.6919 35.2743 24.9898 35.2453 25.2848C35.2163 25.5798 35.1286 25.8661 34.9874 26.1267C34.8461 26.3874 34.6542 26.6171 34.4229 26.8025C34.1915 26.9879 33.9255 27.1252 33.6403 27.2063C33.3573 27.293 33.0599 27.3224 32.7654 27.2927C32.4709 27.2631 32.1853 27.1749 31.9253 27.0335C31.6653 26.892 31.4361 26.7001 31.2512 26.469C31.0663 26.2379 30.9294 25.9722 30.8484 25.6875" stroke="black" stroke-width="3" stroke-miterlimit="10" stroke-linecap="round"/>
<path d="M24 9C26.0711 9 27.75 7.32107 27.75 5.25C27.75 3.17893 26.0711 1.5 24 1.5C21.9289 1.5 20.25 3.17893 20.25 5.25C20.25 7.32107 21.9289 9 24 9Z" stroke="black" stroke-width="3" stroke-miterlimit="10" stroke-linecap="round"/>
<path d="M19.5 18L15 33H33L28.5 18" stroke="black" stroke-width="3" stroke-linecap="round" stroke-linejoin="round"/>
</svg>
